<svg xmlns="http://www.w3.org/2000/svg" xmlns:xlink="http://www.w3.org/1999/xlink" width="794" zoomAndPan="magnify" viewBox="0 0 595.5 842.249979" height="1123" preserveAspectRatio="xMidYMid meet" version="1.0"><defs><clipPath id="id1"><path d="M 0.015625 0 L 594.984375 0 L 594.984375 841.5 L 0.015625 841.5 Z M 0.015625 0 " clip-rule="nonzero"/></clipPath><clipPath id="id2"><path d="M 71.164062 212.546875 L 523.792969 212.546875 L 523.792969 521.53125 L 71.164062 521.53125 Z M 71.164062 212.546875 " clip-rule="nonzero"/></clipPath></defs><g clip-path="url(#id1)"><path fill="#ffffff" d="M 0.015625 0 L 595.484375 0 L 595.484375 848.957031 L 0.015625 848.957031 Z M 0.015625 0 " fill-opacity="1" fill-rule="nonzero"/><path fill="#ffffff" d="M 0.015625 0 L 595.484375 0 L 595.484375 842.207031 L 0.015625 842.207031 Z M 0.015625 0 " fill-opacity="1" fill-rule="nonzero"/><path fill="#ffffff" d="M 0.015625 0 L 595.484375 0 L 595.484375 842.207031 L 0.015625 842.207031 Z M 0.015625 0 " fill-opacity="1" fill-rule="nonzero"/><path fill="#ffffff" d="M 0.015625 0 L 595.484375 0 L 595.484375 842.207031 L 0.015625 842.207031 Z M 0.015625 0 " fill-opacity="1" fill-rule="nonzero"/></g><g clip-path="url(#id2)"><path fill="#dadaff" d="M 161.820312 380.015625 C 163.230469 380.574219 164.625 381.183594 165.996094 381.851562 C 164.414062 382.96875 163 384.292969 161.828125 385.796875 C 161.578125 384.796875 161.457031 383.742188 161.484375 382.632812 C 161.507812 381.726562 161.621094 380.855469 161.820312 380.015625 Z M 161.539062 388.460938 C 162.183594 389.804688 163.046875 391.058594 164.097656 392.171875 C 162.519531 393.191406 161.082031 394.402344 159.863281 395.792969 C 159.832031 395.382812 159.816406 394.96875 159.832031 394.546875 C 159.882812 392.316406 160.507812 390.28125 161.539062 388.460938 Z M 159.21875 398.722656 C 159.722656 400.25 160.492188 401.683594 161.492188 402.976562 C 159.894531 404 158.445312 405.222656 157.214844 406.625 C 157.179688 406.214844 157.171875 405.800781 157.179688 405.375 C 157.242188 402.910156 157.992188 400.683594 159.21875 398.722656 Z M 156.574219 409.554688 C 157.898438 413.601562 161.140625 417.023438 165.433594 418.800781 C 173.285156 422.058594 181.78125 419.433594 186.617188 412.535156 C 185.695312 419.953125 181.421875 427.199219 173.980469 429.234375 C 165.457031 431.5625 154.296875 425.917969 154.53125 416.203125 C 154.589844 413.742188 155.339844 411.511719 156.574219 409.554688 Z M 188.613281 405.050781 C 188.421875 405.777344 188.195312 406.5 187.933594 407.207031 C 187.835938 406.269531 187.683594 405.339844 187.488281 404.417969 C 187.867188 404.621094 188.242188 404.832031 188.613281 405.050781 Z M 188.917969 403.789062 C 188.621094 403.621094 188.324219 403.460938 188.023438 403.300781 C 188.460938 402.796875 188.875 402.261719 189.261719 401.703125 C 189.179688 402.402344 189.0625 403.097656 188.917969 403.789062 Z M 191.261719 394.21875 C 191.070312 394.945312 190.84375 395.671875 190.582031 396.375 C 190.480469 395.445312 190.335938 394.515625 190.136719 393.59375 C 190.511719 393.796875 190.890625 394.003906 191.261719 394.21875 Z M 191.566406 392.957031 C 190.96875 392.621094 190.355469 392.296875 189.746094 391.988281 C 189.699219 391.8125 189.648438 391.644531 189.597656 391.472656 C 190.144531 390.855469 190.65625 390.191406 191.128906 389.488281 C 191.480469 388.972656 191.800781 388.445312 192.101562 387.90625 C 192.097656 389.585938 191.921875 391.289062 191.566406 392.957031 Z M 192.792969 382.78125 C 192.792969 382.777344 192.785156 382.765625 192.785156 382.761719 C 192.792969 382.761719 192.792969 382.761719 192.796875 382.765625 C 192.796875 382.769531 192.792969 382.777344 192.792969 382.78125 Z M 193.113281 381.527344 C 192.875 381.402344 192.632812 381.277344 192.394531 381.160156 C 192.25 380.625 192.082031 380.09375 191.902344 379.570312 C 192.152344 379.246094 192.390625 378.921875 192.621094 378.574219 C 193.03125 377.972656 193.402344 377.34375 193.742188 376.714844 C 193.691406 378.320312 193.480469 379.9375 193.113281 381.527344 Z M 194.492188 371.082031 C 194.476562 371.003906 194.457031 370.925781 194.441406 370.847656 C 194.476562 370.863281 194.507812 370.882812 194.539062 370.898438 C 194.519531 370.960938 194.507812 371.023438 194.492188 371.082031 Z M 194.8125 369.632812 C 194.558594 369.503906 194.304688 369.371094 194.050781 369.246094 C 193.691406 367.960938 193.242188 366.703125 192.703125 365.476562 C 193.609375 364.109375 194.351562 362.664062 194.925781 361.175781 C 195.390625 363.878906 195.347656 366.800781 194.8125 369.632812 Z M 194.746094 330.941406 C 194.269531 329.691406 193.699219 328.472656 193.042969 327.300781 C 193.871094 325.96875 194.542969 324.574219 195.074219 323.136719 C 195.386719 325.664062 195.277344 328.34375 194.746094 330.941406 Z M 194.503906 294.804688 C 194.660156 295.414062 194.796875 296.027344 194.90625 296.652344 C 195.402344 299.441406 195.355469 302.453125 194.78125 305.382812 C 194.273438 304.023438 193.652344 302.703125 192.933594 301.4375 C 190.757812 297.636719 188.097656 294.511719 185.074219 291.90625 C 188.382812 292.3125 191.519531 293.355469 194.503906 294.804688 Z M 182.535156 291.726562 C 187.703125 295.699219 192.007812 300.855469 194.035156 306.996094 C 191.558594 305.875 188.972656 305.03125 186.257812 304.5625 C 181.785156 300.367188 176.429688 297.4375 170.628906 295.21875 C 174.222656 292.957031 178.574219 291.703125 182.535156 291.726562 Z M 169.308594 296.128906 C 171.09375 296.804688 172.855469 297.554688 174.585938 298.402344 C 177.761719 299.960938 180.878906 301.917969 183.695312 304.238281 C 178.582031 303.902344 173.078125 305.507812 168.824219 308.628906 C 166.921875 307.960938 164.980469 307.359375 163.003906 306.808594 C 163.292969 302.386719 165.8125 298.730469 169.308594 296.128906 Z M 162.984375 308.113281 C 164.542969 308.5625 166.09375 309.050781 167.625 309.582031 C 166.382812 310.644531 165.277344 311.84375 164.367188 313.179688 C 163.554688 311.671875 163.054688 309.96875 162.984375 308.113281 Z M 164.425781 315.484375 C 165.707031 317.222656 167.390625 318.714844 169.363281 319.839844 C 169.054688 320.050781 168.757812 320.265625 168.460938 320.492188 C 166.746094 319.902344 164.996094 319.363281 163.230469 318.867188 C 163.476562 317.671875 163.878906 316.542969 164.425781 315.484375 Z M 163.039062 320.125 C 164.46875 320.535156 165.886719 320.976562 167.292969 321.460938 C 165.914062 322.695312 164.71875 324.109375 163.777344 325.683594 C 163.226562 324.285156 162.933594 322.75 162.972656 321.097656 C 162.984375 320.765625 163.003906 320.441406 163.039062 320.125 Z M 163.832031 328.378906 C 165.214844 330.566406 167.203125 332.425781 169.609375 333.742188 C 169.566406 333.769531 169.519531 333.796875 169.480469 333.828125 C 167.375 333.070312 165.21875 332.390625 163.027344 331.785156 C 163.140625 330.589844 163.417969 329.453125 163.832031 328.378906 Z M 162.972656 333.074219 C 164.734375 333.582031 166.484375 334.136719 168.214844 334.757812 C 166.773438 335.898438 165.5 337.21875 164.460938 338.707031 C 163.53125 337.050781 162.988281 335.160156 162.972656 333.074219 Z M 164.519531 340.964844 C 165.859375 342.742188 167.625 344.261719 169.695312 345.378906 C 167.695312 344.601562 165.636719 343.902344 163.542969 343.273438 C 163.796875 342.472656 164.125 341.703125 164.519531 340.964844 Z M 163.234375 344.507812 C 165.066406 345.074219 166.878906 345.695312 168.664062 346.402344 C 166.75 347.832031 165.109375 349.574219 163.875 351.582031 C 163.257812 350.125 162.933594 348.507812 162.972656 346.753906 C 162.992188 345.980469 163.089844 345.234375 163.234375 344.507812 Z M 163.933594 354.199219 C 164.445312 354.988281 165.039062 355.734375 165.707031 356.429688 C 164.957031 356.164062 164.199219 355.910156 163.433594 355.667969 C 163.570312 355.167969 163.738281 354.675781 163.933594 354.199219 Z M 163.148438 356.921875 C 165.125 357.574219 167.074219 358.304688 168.992188 359.132812 C 167.074219 360.515625 165.402344 362.199219 164.132812 364.152344 C 163.351562 362.539062 162.925781 360.726562 162.972656 358.746094 C 162.988281 358.125 163.046875 357.515625 163.148438 356.921875 Z M 164.191406 366.574219 C 164.574219 367.121094 164.992188 367.648438 165.449219 368.144531 C 164.90625 367.933594 164.347656 367.726562 163.796875 367.523438 C 163.917969 367.199219 164.046875 366.882812 164.191406 366.574219 Z M 163.398438 368.769531 C 164.65625 369.246094 165.898438 369.761719 167.132812 370.316406 C 165.628906 371.449219 164.285156 372.773438 163.183594 374.277344 C 163.027344 373.460938 162.949219 372.609375 162.972656 371.71875 C 162.996094 370.695312 163.148438 369.714844 163.398438 368.769531 Z M 162.300781 387.257812 C 163.558594 385.472656 165.21875 383.933594 167.109375 382.683594 C 168.328125 383.679688 169.710938 384.515625 171.226562 385.144531 C 171.605469 385.300781 171.980469 385.4375 172.359375 385.566406 C 173.65625 386.46875 174.914062 387.441406 176.105469 388.484375 C 172.359375 388.558594 168.507812 389.625 165.171875 391.523438 C 163.941406 390.304688 162.941406 388.875 162.300781 387.257812 Z M 162.527344 402.351562 C 161.378906 400.941406 160.53125 399.296875 160.117188 397.460938 C 161.449219 395.757812 163.152344 394.296875 165.066406 393.128906 C 166.410156 394.328125 167.988281 395.328125 169.738281 396.058594 C 174.152344 397.890625 178.773438 397.859375 182.835938 396.253906 C 183.976562 398.089844 184.910156 400.042969 185.589844 402.101562 C 182.625 400.765625 179.503906 399.8125 176.1875 399.433594 C 171.636719 398.910156 166.683594 399.992188 162.527344 402.351562 Z M 163.449219 403.367188 C 167.074219 401.40625 171.28125 400.414062 175.042969 400.632812 C 178.917969 400.863281 182.558594 401.992188 185.996094 403.660156 C 184.160156 405.46875 181.917969 406.851562 179.273438 407.574219 C 173.867188 409.054688 167.390625 407.316406 163.449219 403.367188 Z M 186.800781 409.757812 C 184.667969 413.847656 181.261719 417.136719 176.628906 418.40625 C 169 420.488281 159.257812 416.183594 157.464844 408.289062 C 158.785156 406.605469 160.464844 405.160156 162.351562 403.996094 C 163.898438 405.671875 165.847656 407.042969 168.085938 407.96875 C 174.53125 410.648438 181.421875 409.351562 186.355469 404.980469 C 186.390625 405.164062 186.429688 405.34375 186.464844 405.527344 C 186.703125 406.898438 186.820312 408.320312 186.800781 409.757812 Z M 179.71875 390.007812 C 182.324219 390.371094 184.8125 391.132812 187.210938 392.167969 C 186.078125 393.207031 184.804688 394.082031 183.386719 394.75 C 182.269531 393.027344 181.039062 391.449219 179.71875 390.007812 Z M 177.542969 389.800781 C 179.273438 391.464844 180.84375 393.289062 182.183594 395.253906 C 181.773438 395.402344 181.359375 395.546875 180.929688 395.660156 C 176.007812 397.007812 170.207031 395.691406 166.226562 392.46875 C 169.773438 390.574219 173.867188 389.617188 177.542969 389.800781 Z M 188.203125 391.167969 C 188.1875 391.191406 188.167969 391.210938 188.148438 391.234375 C 185.210938 389.917969 182.117188 388.976562 178.835938 388.601562 C 178.664062 388.585938 178.488281 388.570312 178.3125 388.550781 C 177.535156 387.796875 176.730469 387.074219 175.898438 386.390625 C 179.121094 386.808594 182.320312 386.296875 185.195312 384.972656 C 186.445312 386.90625 187.472656 388.976562 188.203125 391.167969 Z M 190.496094 379.335938 C 190.304688 379.570312 190.113281 379.796875 189.914062 380.019531 C 187.242188 378.90625 184.441406 378.113281 181.488281 377.773438 C 181.3125 377.753906 181.136719 377.742188 180.960938 377.722656 C 179.296875 376.101562 177.503906 374.667969 175.605469 373.382812 C 179.242188 373.902344 182.84375 373.257812 186.003906 371.601562 C 187.882812 373.949219 189.421875 376.535156 190.496094 379.335938 Z M 192.542969 368.53125 C 191.992188 368.28125 191.433594 368.042969 190.871094 367.824219 C 191.214844 367.453125 191.535156 367.070312 191.847656 366.667969 C 192.105469 367.277344 192.335938 367.902344 192.542969 368.53125 Z M 194.226562 359.070312 C 193.703125 360.84375 192.976562 362.546875 192.050781 364.109375 C 191.855469 363.726562 191.65625 363.347656 191.441406 362.976562 C 190.457031 361.261719 189.382812 359.683594 188.214844 358.226562 C 188.640625 357.914062 189.058594 357.578125 189.464844 357.222656 C 191.09375 357.707031 192.679688 358.332031 194.226562 359.070312 Z M 194.035156 332.65625 C 192.707031 332.054688 191.351562 331.535156 189.957031 331.105469 C 190.785156 330.324219 191.554688 329.449219 192.25 328.484375 C 192.957031 329.816406 193.554688 331.207031 194.035156 332.65625 Z M 194.53125 320.292969 C 194.039062 322.304688 193.292969 324.25 192.292969 326.03125 C 190.785156 323.578125 189.058594 321.421875 187.164062 319.511719 C 187.839844 319.085938 188.492188 318.613281 189.121094 318.085938 C 190.96875 318.613281 192.757812 319.316406 194.503906 320.164062 C 194.511719 320.207031 194.519531 320.253906 194.53125 320.292969 Z M 187.863281 306.171875 C 189.984375 306.667969 192.03125 307.414062 194.011719 308.34375 C 193.582031 309.648438 193.035156 310.910156 192.382812 312.105469 C 191.039062 309.902344 189.519531 307.933594 187.863281 306.171875 Z M 194.035156 318.585938 C 192.78125 318.019531 191.503906 317.527344 190.191406 317.109375 C 190.96875 316.351562 191.683594 315.507812 192.335938 314.589844 C 193.007812 315.867188 193.578125 317.203125 194.035156 318.585938 Z M 170.339844 309.179688 C 174.273438 306.609375 179.175781 305.273438 183.484375 305.523438 C 184.125 305.5625 184.757812 305.625 185.382812 305.714844 C 187.832031 307.964844 189.980469 310.523438 191.644531 313.347656 C 190.84375 314.585938 189.910156 315.722656 188.851562 316.71875 C 187.476562 316.355469 186.074219 316.078125 184.632812 315.914062 C 184.046875 315.847656 183.457031 315.8125 182.859375 315.792969 C 179.085938 312.996094 174.84375 310.875 170.339844 309.179688 Z M 170.628906 319.027344 C 168.402344 317.914062 166.457031 316.324219 165.082031 314.34375 C 166.117188 312.730469 167.476562 311.308594 169.046875 310.101562 C 170.921875 310.800781 172.773438 311.582031 174.585938 312.472656 C 176.582031 313.449219 178.550781 314.585938 180.441406 315.871094 C 177.039062 316.171875 173.609375 317.261719 170.628906 319.027344 Z M 172.15625 319.703125 C 175.292969 318.058594 178.839844 317.144531 182.148438 317.09375 C 183.121094 317.820312 184.058594 318.59375 184.964844 319.40625 C 184.164062 319.792969 183.3125 320.109375 182.421875 320.355469 C 179.121094 321.257812 175.433594 320.960938 172.15625 319.703125 Z M 186.300781 318.671875 C 185.765625 318.167969 185.21875 317.683594 184.660156 317.21875 C 185.683594 317.324219 186.691406 317.492188 187.679688 317.714844 C 187.238281 318.058594 186.777344 318.378906 186.300781 318.671875 Z M 169.949219 321.027344 C 170.203125 320.855469 170.453125 320.6875 170.714844 320.523438 C 170.882812 320.601562 171.050781 320.679688 171.226562 320.753906 C 176.21875 322.824219 181.472656 322.515625 185.875 320.25 C 188.074219 322.34375 190.011719 324.6875 191.546875 327.261719 C 190.707031 328.539062 189.722656 329.710938 188.59375 330.71875 C 187.65625 330.480469 186.695312 330.277344 185.71875 330.128906 C 181.183594 326.035156 175.78125 323.183594 169.949219 321.027344 Z M 170.910156 332.933594 C 168.179688 331.632812 165.847656 329.628906 164.433594 327.066406 C 165.445312 325.109375 166.925781 323.394531 168.695312 321.960938 C 170.695312 322.695312 172.664062 323.519531 174.585938 324.464844 C 177.5625 325.925781 180.492188 327.738281 183.167969 329.871094 C 179.011719 329.707031 174.632812 330.800781 170.910156 332.933594 Z M 172.492188 333.597656 C 175.980469 331.847656 179.9375 330.976562 183.484375 331.183594 C 183.953125 331.210938 184.414062 331.253906 184.867188 331.308594 C 185.308594 331.699219 185.746094 332.105469 186.171875 332.515625 C 185.023438 333.203125 183.777344 333.753906 182.421875 334.125 C 179.238281 334.996094 175.679688 334.75 172.492188 333.597656 Z M 171.300781 344.707031 C 168.847656 343.613281 166.691406 341.960938 165.183594 339.851562 C 166.339844 338.089844 167.886719 336.566406 169.664062 335.296875 C 171.328125 335.9375 172.976562 336.648438 174.585938 337.4375 C 177.09375 338.667969 179.558594 340.144531 181.875 341.855469 C 178.261719 341.933594 174.550781 342.933594 171.300781 344.707031 Z M 164.539062 352.917969 C 165.8125 350.550781 167.777344 348.550781 170.101562 346.984375 C 171.109375 347.414062 172.109375 347.867188 173.09375 348.347656 C 176.558594 350.050781 179.953125 352.222656 182.964844 354.832031 C 178.652344 354.703125 174.117188 355.921875 170.335938 358.242188 C 170.15625 358.167969 169.980469 358.089844 169.800781 358.015625 C 167.621094 356.761719 165.761719 355.039062 164.539062 352.917969 Z M 164.828125 365.386719 C 166.152344 363.152344 168.09375 361.265625 170.363281 359.789062 C 170.648438 359.925781 170.933594 360.058594 171.226562 360.179688 C 171.304688 360.210938 171.378906 360.238281 171.457031 360.273438 C 174.460938 361.746094 177.421875 363.578125 180.117188 365.746094 C 176.144531 365.882812 172.074219 367.121094 168.644531 369.277344 C 167.117188 368.222656 165.808594 366.914062 164.828125 365.386719 Z M 185.246094 370.683594 C 184.363281 371.128906 183.417969 371.503906 182.421875 371.773438 C 178.339844 372.890625 173.65625 372.175781 169.90625 370.066406 C 173.535156 367.984375 177.816406 366.894531 181.660156 367.046875 C 182.941406 368.183594 184.140625 369.394531 185.246094 370.683594 Z M 188.636719 368.339844 C 187.957031 368.957031 187.230469 369.511719 186.445312 370 C 185.660156 369.035156 184.835938 368.121094 183.976562 367.261719 C 185.566406 367.480469 187.121094 367.851562 188.636719 368.339844 Z M 187.085938 358.992188 C 188.734375 360.941406 190.148438 363.0625 191.253906 365.34375 C 190.757812 366.058594 190.214844 366.734375 189.621094 367.363281 C 187.542969 366.636719 185.386719 366.117188 183.144531 365.859375 C 182.902344 365.832031 182.664062 365.808594 182.425781 365.789062 C 180.621094 364.183594 178.679688 362.765625 176.632812 361.507812 C 180.335938 361.816406 183.972656 360.925781 187.085938 358.992188 Z M 186.308594 358.09375 C 185.125 358.820312 183.832031 359.398438 182.421875 359.785156 C 179.273438 360.644531 175.769531 360.414062 172.609375 359.296875 C 172.34375 359.171875 172.082031 359.042969 171.820312 358.917969 C 175.460938 356.933594 179.703125 355.925781 183.484375 356.148438 C 183.824219 356.171875 184.164062 356.199219 184.5 356.230469 C 185.125 356.832031 185.730469 357.453125 186.308594 358.09375 Z M 188.066406 356.84375 C 187.867188 357.011719 187.664062 357.167969 187.457031 357.320312 C 187.238281 357.066406 187.023438 356.8125 186.796875 356.566406 C 187.222656 356.652344 187.648438 356.742188 188.066406 356.84375 Z M 189.164062 355.84375 C 187.914062 355.496094 186.636719 355.222656 185.324219 355.039062 C 181.675781 351.46875 177.402344 348.777344 172.753906 346.667969 C 177.378906 348.132812 182.125 347.621094 186.144531 345.460938 C 188.332031 347.59375 190.257812 349.972656 191.765625 352.582031 C 191.019531 353.765625 190.148438 354.867188 189.164062 355.84375 Z M 194.035156 357.617188 C 192.878906 357.097656 191.695312 356.632812 190.492188 356.242188 C 191.195312 355.511719 191.851562 354.714844 192.457031 353.851562 C 193.070312 355.0625 193.605469 356.320312 194.035156 357.617188 Z M 188.464844 343.96875 C 190.53125 344.503906 192.535156 345.273438 194.464844 346.210938 C 194.011719 347.996094 193.351562 349.722656 192.496094 351.324219 C 190.996094 348.84375 189.289062 346.652344 187.402344 344.71875 C 187.761719 344.480469 188.117188 344.234375 188.464844 343.96875 Z M 194.035156 344.644531 C 192.601562 344 191.140625 343.445312 189.636719 343 C 190.535156 342.1875 191.371094 341.269531 192.121094 340.25 C 192.886719 341.652344 193.53125 343.121094 194.035156 344.644531 Z M 188.847656 332.078125 C 190.585938 332.554688 192.28125 333.191406 193.921875 333.960938 C 193.460938 335.3125 192.878906 336.613281 192.175781 337.832031 C 190.972656 335.90625 189.640625 334.160156 188.191406 332.582031 C 188.414062 332.417969 188.632812 332.253906 188.847656 332.078125 Z M 172.402344 334.957031 C 177.476562 336.675781 182.722656 336.007812 187.015625 333.371094 C 188.6875 335.109375 190.179688 337.003906 191.421875 339.039062 C 190.519531 340.378906 189.457031 341.589844 188.234375 342.628906 C 187.058594 342.335938 185.863281 342.117188 184.632812 341.972656 C 184.550781 341.964844 184.46875 341.960938 184.390625 341.949219 C 180.804688 339.011719 176.75 336.757812 172.402344 334.957031 Z M 186.550781 343.875 C 186.414062 343.742188 186.273438 343.609375 186.132812 343.480469 C 186.402344 343.523438 186.667969 343.574219 186.929688 343.621094 C 186.804688 343.710938 186.679688 343.792969 186.550781 343.875 Z M 183.585938 343.183594 C 184.152344 343.644531 184.707031 344.125 185.246094 344.621094 C 184.359375 345.070312 183.417969 345.441406 182.421875 345.714844 C 179.398438 346.539062 176.039062 346.363281 172.976562 345.355469 C 176.34375 343.761719 180.097656 342.976562 183.484375 343.175781 C 183.519531 343.179688 183.546875 343.179688 183.585938 343.183594 Z M 182.371094 379.179688 C 184.65625 379.5 186.859375 380.128906 188.992188 380.980469 C 188.007812 381.921875 186.910156 382.75 185.703125 383.417969 C 184.675781 381.886719 183.5625 380.476562 182.371094 379.179688 Z M 184.527344 383.992188 C 183.855469 384.292969 183.15625 384.550781 182.421875 384.746094 C 179.539062 385.535156 176.363281 385.410156 173.421875 384.527344 C 171.929688 383.488281 170.375 382.550781 168.765625 381.699219 C 172.339844 379.769531 176.476562 378.78125 180.195312 378.96875 C 181.796875 380.515625 183.257812 382.191406 184.527344 383.992188 Z M 163.609375 375.855469 C 164.839844 373.933594 166.535156 372.285156 168.496094 370.949219 C 168.589844 370.996094 168.691406 371.042969 168.792969 371.09375 C 172.289062 372.808594 175.722656 375.007812 178.753906 377.652344 C 174.828125 377.734375 170.785156 378.902344 167.34375 380.972656 C 167.136719 380.867188 166.929688 380.765625 166.71875 380.671875 C 165.332031 379.316406 164.246094 377.699219 163.609375 375.855469 Z M 195.03125 317.664062 C 194.519531 316.191406 193.886719 314.761719 193.132812 313.394531 C 193.796875 312.304688 194.359375 311.171875 194.824219 310.011719 C 194.851562 310.144531 194.878906 310.285156 194.90625 310.421875 C 195.316406 312.738281 195.359375 315.214844 195.03125 317.664062 Z M 194.988281 343.605469 C 194.4375 342.046875 193.753906 340.53125 192.933594 339.089844 C 192.929688 339.085938 192.925781 339.082031 192.925781 339.074219 C 193.660156 337.917969 194.277344 336.714844 194.78125 335.46875 C 194.824219 335.671875 194.871094 335.875 194.90625 336.078125 C 195.335938 338.488281 195.359375 341.0625 194.988281 343.605469 Z M 194.878906 356.28125 C 194.425781 355.03125 193.875 353.804688 193.242188 352.628906 C 193.960938 351.429688 194.558594 350.183594 195.035156 348.902344 C 195.363281 351.285156 195.3125 353.808594 194.878906 356.28125 Z M 193.417969 371.960938 C 193.523438 372.539062 193.601562 373.132812 193.65625 373.738281 C 193.0625 375.304688 192.292969 376.792969 191.371094 378.152344 C 190.914062 377.03125 190.390625 375.9375 189.785156 374.890625 C 188.980469 373.480469 188.109375 372.160156 187.171875 370.925781 C 188.148438 370.316406 189.070312 369.601562 189.929688 368.785156 C 190.972656 369.175781 192 369.617188 193.011719 370.113281 C 193.167969 370.71875 193.304688 371.332031 193.417969 371.960938 Z M 191.761719 383.871094 C 191.839844 384.304688 191.898438 384.746094 191.949219 385.191406 C 191.226562 386.953125 190.292969 388.613281 189.136719 390.078125 C 188.601562 388.574219 187.933594 387.109375 187.136719 385.71875 C 186.878906 385.261719 186.613281 384.824219 186.335938 384.394531 C 187.730469 383.617188 189.03125 382.652344 190.207031 381.492188 C 190.59375 381.660156 190.976562 381.839844 191.355469 382.023438 C 191.511719 382.632812 191.648438 383.246094 191.761719 383.871094 Z M 189.449219 398.925781 C 188.769531 400.234375 187.960938 401.457031 187.023438 402.558594 C 186.417969 400.46875 185.574219 398.445312 184.488281 396.550781 C 184.332031 396.273438 184.167969 396.007812 184.007812 395.738281 C 185.589844 394.96875 187.074219 393.957031 188.398438 392.707031 C 188.503906 392.757812 188.605469 392.804688 188.707031 392.855469 C 188.863281 393.464844 189 394.078125 189.113281 394.699219 C 189.355469 396.066406 189.464844 397.488281 189.449219 398.925781 Z M 162.859375 377.179688 C 163.222656 378.003906 163.667969 378.789062 164.1875 379.542969 C 163.53125 379.265625 162.867188 379 162.195312 378.746094 C 162.382812 378.207031 162.605469 377.683594 162.859375 377.179688 Z M 71.265625 322.386719 C 73.996094 326.773438 76.738281 331.152344 79.640625 335.421875 C 85.527344 344.097656 92.125 352.480469 100.378906 359.023438 C 109.367188 366.144531 119.832031 369.875 130.910156 372.335938 C 140.824219 374.542969 151.085938 375.984375 160.632812 379.558594 C 159.972656 382.136719 160.136719 384.695312 160.949219 387.035156 C 160.542969 387.667969 160.175781 388.324219 159.855469 389.003906 C 158.578125 391.742188 158.304688 394.527344 158.804688 397.121094 C 158.195312 397.972656 157.65625 398.875 157.207031 399.835938 C 155.929688 402.570312 155.652344 405.355469 156.15625 407.953125 C 155.542969 408.804688 155.003906 409.707031 154.558594 410.664062 C 150.957031 418.386719 155.28125 426.515625 162.785156 429.632812 C 170.75 432.933594 179.390625 430.183594 184.179688 423.0625 C 186.796875 419.167969 188.035156 414.671875 188.074219 410.140625 C 188.8125 408.730469 189.390625 407.265625 189.8125 405.761719 C 195 408.960938 199.707031 413.171875 204.058594 417.023438 C 220.007812 431.132812 238.707031 446.511719 260.785156 448.414062 C 266.007812 448.859375 271.265625 448.421875 276.339844 447.121094 C 282.339844 445.589844 288.078125 442.957031 294.273438 442.238281 C 305.507812 440.9375 316.480469 445.589844 325.296875 452.269531 C 344.101562 466.511719 352.0625 489.753906 368.132812 506.394531 C 374.972656 513.472656 383.835938 518.6875 393.980469 517.410156 C 403.6875 516.1875 411.949219 510.058594 419.714844 504.574219 C 427.6875 498.945312 435.636719 493.8125 445.238281 491.507812 C 453.84375 489.449219 462.890625 489.402344 471.558594 491.097656 C 489.21875 494.550781 505.523438 505.195312 514.140625 521.230469 C 514.539062 521.96875 515.664062 521.308594 515.265625 520.574219 C 513.199219 516.734375 510.710938 513.152344 507.816406 509.890625 C 495.964844 496.519531 478.097656 488.925781 460.34375 488.601562 C 451.476562 488.4375 442.574219 490.132812 434.507812 493.84375 C 424.824219 498.304688 416.890625 505.691406 407.695312 510.980469 C 403.003906 513.679688 397.875 515.898438 392.414062 516.261719 C 386.628906 516.648438 381.109375 514.851562 376.324219 511.664062 C 366.238281 504.953125 359.574219 493.820312 353.0625 483.898438 C 340.972656 465.457031 326.441406 443.957031 302.59375 441 C 296.839844 440.285156 291.320312 441.144531 285.8125 442.828125 C 279.742188 444.691406 273.894531 446.835938 267.488281 447.207031 C 255.523438 447.902344 243.964844 443.660156 233.726562 437.765625 C 223.085938 431.636719 213.609375 423.734375 204.433594 415.617188 C 200.007812 411.703125 195.308594 407.609375 190.132812 404.496094 C 190.511719 402.792969 190.707031 401.054688 190.71875 399.308594 C 191.460938 397.90625 192.042969 396.433594 192.464844 394.933594 C 197.648438 398.128906 202.355469 402.34375 206.707031 406.191406 C 222.65625 420.300781 241.355469 435.679688 263.433594 437.582031 C 268.652344 438.027344 273.910156 437.597656 278.992188 436.296875 C 284.988281 434.757812 290.726562 432.128906 296.925781 431.410156 C 308.160156 430.105469 319.132812 434.761719 327.945312 441.4375 C 346.75 455.6875 354.714844 478.921875 370.785156 495.5625 C 377.621094 502.644531 386.488281 507.859375 396.632812 506.578125 C 406.335938 505.355469 414.597656 499.234375 422.363281 493.742188 C 430.335938 488.113281 438.285156 482.980469 447.886719 480.679688 C 456.492188 478.621094 465.542969 478.574219 474.210938 480.269531 C 491.867188 483.71875 508.171875 494.371094 516.789062 510.402344 C 517.183594 511.144531 518.3125 510.484375 517.910156 509.742188 C 515.851562 505.90625 513.363281 502.320312 510.46875 499.0625 C 498.617188 485.691406 480.742188 478.09375 462.992188 477.773438 C 454.128906 477.609375 445.226562 479.300781 437.160156 483.019531 C 427.476562 487.472656 419.539062 494.863281 410.347656 500.152344 C 405.652344 502.851562 400.519531 505.066406 395.0625 505.429688 C 389.28125 505.816406 383.757812 504.019531 378.96875 500.832031 C 368.890625 494.121094 362.222656 482.992188 355.710938 473.066406 C 343.621094 454.628906 329.09375 433.128906 305.242188 430.171875 C 299.492188 429.457031 293.96875 430.3125 288.464844 432 C 282.390625 433.859375 276.542969 436.007812 270.140625 436.378906 C 258.171875 437.070312 246.613281 432.828125 236.378906 426.9375 C 225.730469 420.808594 216.257812 412.902344 207.085938 404.792969 C 202.660156 400.875 197.957031 396.78125 192.78125 393.667969 C 193.375 391.015625 193.519531 388.28125 193.234375 385.570312 C 193.527344 384.871094 193.777344 384.15625 193.996094 383.433594 C 199.625 386.695312 204.691406 391.238281 209.355469 395.367188 C 225.304688 409.472656 244 424.847656 266.082031 426.75 C 271.304688 427.203125 276.5625 426.765625 281.636719 425.464844 C 287.640625 423.929688 293.378906 421.300781 299.574219 420.582031 C 310.808594 419.28125 321.777344 423.933594 330.597656 430.609375 C 349.402344 444.855469 357.363281 468.09375 373.429688 484.738281 C 380.265625 491.816406 389.136719 497.027344 399.28125 495.75 C 408.984375 494.527344 417.246094 488.402344 425.015625 482.917969 C 432.988281 477.285156 440.9375 472.15625 450.539062 469.851562 C 459.136719 467.789062 468.191406 467.742188 476.859375 469.4375 C 494.515625 472.886719 510.820312 483.539062 519.4375 499.570312 C 519.835938 500.3125 520.960938 499.652344 520.5625 498.914062 C 518.5 495.074219 516.007812 491.496094 513.117188 488.234375 C 501.265625 474.859375 483.390625 467.269531 465.644531 466.941406 C 456.777344 466.78125 447.875 468.476562 439.804688 472.1875 C 430.125 476.644531 422.1875 484.03125 412.996094 489.320312 C 408.304688 492.019531 403.167969 494.234375 397.710938 494.601562 C 391.929688 494.988281 386.410156 493.195312 381.621094 490.007812 C 371.539062 483.296875 364.871094 472.164062 358.363281 462.238281 C 346.265625 443.800781 331.742188 422.296875 307.890625 419.339844 C 302.140625 418.625 296.621094 419.484375 291.113281 421.167969 C 285.039062 423.03125 279.191406 425.175781 272.789062 425.550781 C 260.820312 426.246094 249.265625 421.996094 239.027344 416.105469 C 228.382812 409.980469 218.910156 402.074219 209.734375 393.960938 C 204.996094 389.769531 199.945312 385.378906 194.335938 382.195312 C 194.976562 379.566406 195.160156 376.835938 194.929688 374.132812 C 195.253906 373.296875 195.527344 372.441406 195.75 371.582031 C 201.339844 374.839844 206.378906 379.351562 211.011719 383.449219 C 226.960938 397.558594 245.65625 412.9375 267.738281 414.839844 C 272.960938 415.285156 278.21875 414.851562 283.292969 413.554688 C 289.292969 412.015625 295.027344 409.390625 301.226562 408.671875 C 312.460938 407.363281 323.433594 412.019531 332.25 418.695312 C 351.058594 432.945312 359.019531 456.179688 375.085938 472.820312 C 381.921875 479.90625 390.789062 485.113281 400.933594 483.835938 C 410.640625 482.613281 418.898438 476.492188 426.671875 471 C 434.636719 465.371094 442.589844 460.238281 452.195312 457.933594 C 460.792969 455.875 469.847656 455.828125 478.515625 457.523438 C 496.167969 460.976562 512.472656 471.625 521.09375 487.65625 C 521.492188 488.398438 522.613281 487.742188 522.21875 487 C 520.15625 483.160156 517.664062 479.582031 514.773438 476.320312 C 502.917969 462.945312 485.046875 455.355469 467.292969 455.027344 C 458.433594 454.867188 449.53125 456.5625 441.460938 460.273438 C 431.78125 464.730469 423.839844 472.121094 414.648438 477.40625 C 409.960938 480.105469 404.824219 482.324219 399.363281 482.6875 C 393.582031 483.074219 388.058594 481.28125 383.277344 478.09375 C 373.195312 471.382812 366.523438 460.253906 360.015625 450.324219 C 347.921875 431.882812 333.394531 410.382812 309.546875 407.425781 C 303.792969 406.710938 298.273438 407.570312 292.765625 409.253906 C 286.691406 411.117188 280.84375 413.261719 274.441406 413.636719 C 262.472656 414.332031 250.917969 410.085938 240.683594 404.191406 C 230.039062 398.066406 220.5625 390.160156 211.386719 382.046875 C 206.667969 377.871094 201.628906 373.488281 196.039062 370.308594 C 196.726562 366.90625 196.660156 363.359375 195.933594 359.9375 C 202.042969 363.226562 207.507812 368.121094 212.5 372.539062 C 228.453125 386.648438 247.148438 402.023438 269.226562 403.925781 C 274.449219 404.375 279.707031 403.9375 284.78125 402.640625 C 290.78125 401.105469 296.519531 398.476562 302.714844 397.757812 C 313.953125 396.453125 324.925781 401.105469 333.738281 407.785156 C 352.542969 422.03125 360.507812 445.265625 376.578125 461.910156 C 383.414062 468.992188 392.28125 474.203125 402.425781 472.925781 C 412.132812 471.699219 420.390625 465.578125 428.160156 460.089844 C 436.128906 454.457031 444.078125 449.328125 453.679688 447.027344 C 462.285156 444.960938 471.339844 444.921875 480 446.613281 C 497.660156 450.0625 513.964844 460.714844 522.582031 476.746094 C 522.980469 477.484375 524.105469 476.828125 523.707031 476.089844 C 521.644531 472.253906 519.152344 468.667969 516.265625 465.40625 C 504.410156 452.035156 486.539062 444.441406 468.785156 444.113281 C 459.917969 443.953125 451.023438 445.648438 442.953125 449.363281 C 433.265625 453.820312 425.332031 461.207031 416.140625 466.5 C 411.445312 469.199219 406.316406 471.410156 400.855469 471.773438 C 395.070312 472.160156 389.550781 470.367188 384.765625 467.179688 C 374.679688 460.46875 368.015625 449.339844 361.503906 439.410156 C 349.414062 420.976562 334.886719 399.472656 311.035156 396.511719 C 305.285156 395.804688 299.761719 396.660156 294.257812 398.347656 C 288.183594 400.203125 282.335938 402.351562 275.929688 402.722656 C 263.964844 403.417969 252.40625 399.171875 242.175781 393.285156 C 231.53125 387.152344 222.050781 379.246094 212.878906 371.132812 C 207.667969 366.527344 202.085938 361.675781 195.789062 358.460938 C 196.730469 354.714844 196.738281 350.761719 195.933594 346.964844 C 202.042969 350.253906 207.507812 355.148438 212.5 359.566406 C 228.453125 373.675781 247.148438 389.050781 269.226562 390.953125 C 274.449219 391.40625 279.707031 390.964844 284.78125 389.667969 C 290.78125 388.132812 296.519531 385.503906 302.714844 384.785156 C 313.953125 383.480469 324.925781 388.132812 333.738281 394.8125 C 352.542969 409.058594 360.507812 432.292969 376.578125 448.9375 C 383.414062 456.019531 392.28125 461.230469 402.425781 459.953125 C 412.132812 458.726562 420.390625 452.605469 428.160156 447.117188 C 436.128906 441.484375 444.078125 436.355469 453.679688 434.054688 C 462.285156 431.988281 471.339844 431.945312 480 433.640625 C 497.660156 437.089844 513.964844 447.742188 522.582031 463.773438 C 522.980469 464.511719 524.105469 463.855469 523.707031 463.117188 C 521.644531 459.277344 519.152344 455.695312 516.265625 452.433594 C 504.410156 439.0625 486.539062 431.46875 468.785156 431.140625 C 459.917969 430.980469 451.023438 432.675781 442.953125 436.390625 C 433.265625 440.84375 425.332031 448.234375 416.140625 453.527344 C 411.445312 456.226562 406.316406 458.4375 400.855469 458.800781 C 395.070312 459.1875 389.550781 457.394531 384.765625 454.207031 C 374.679688 447.496094 368.015625 436.367188 361.503906 426.4375 C 349.414062 407.996094 334.886719 386.5 311.035156 383.539062 C 305.285156 382.832031 299.761719 383.683594 294.257812 385.375 C 288.183594 387.230469 282.335938 389.378906 275.929688 389.75 C 263.964844 390.445312 252.40625 386.199219 242.175781 380.3125 C 231.53125 374.179688 222.050781 366.273438 212.878906 358.160156 C 207.726562 353.605469 202.203125 348.804688 195.992188 345.59375 C 196.730469 342.105469 196.679688 338.476562 195.933594 334.972656 C 202.042969 338.261719 207.507812 343.152344 212.5 347.570312 C 228.453125 361.679688 247.148438 377.058594 269.226562 378.960938 C 274.449219 379.410156 279.707031 378.976562 284.78125 377.675781 C 290.78125 376.136719 296.519531 373.507812 302.714844 372.792969 C 313.953125 371.484375 324.925781 376.140625 333.738281 382.816406 C 352.542969 397.066406 360.507812 420.300781 376.578125 436.941406 C 383.414062 444.027344 392.28125 449.238281 402.425781 447.957031 C 412.132812 446.734375 420.390625 440.613281 428.160156 435.121094 C 436.128906 429.492188 444.078125 424.359375 453.679688 422.058594 C 462.285156 420 471.339844 419.953125 480 421.648438 C 497.660156 425.097656 513.964844 435.75 522.582031 451.78125 C 522.980469 452.523438 524.105469 451.863281 523.707031 451.121094 C 521.644531 447.285156 519.152344 443.699219 516.265625 440.441406 C 504.410156 427.070312 486.539062 419.472656 468.785156 419.152344 C 459.917969 418.988281 451.023438 420.683594 442.953125 424.398438 C 433.265625 428.851562 425.332031 436.242188 416.140625 441.53125 C 411.445312 444.234375 406.316406 446.445312 400.855469 446.808594 C 395.070312 447.195312 389.550781 445.398438 384.765625 442.21875 C 374.679688 435.503906 368.015625 424.375 361.503906 414.449219 C 349.414062 396.007812 334.886719 374.507812 311.035156 371.550781 C 305.285156 370.835938 299.761719 371.691406 294.257812 373.378906 C 288.183594 375.238281 282.335938 377.386719 275.929688 377.757812 C 263.964844 378.453125 252.40625 374.207031 242.175781 368.316406 C 231.53125 362.1875 222.050781 354.28125 212.878906 346.171875 C 207.601562 341.5 201.9375 336.578125 195.539062 333.367188 C 195.539062 333.359375 195.53125 333.351562 195.53125 333.339844 C 196.71875 329.320312 196.808594 325.019531 195.933594 320.902344 C 202.042969 324.191406 207.507812 329.089844 212.5 333.503906 C 228.453125 347.613281 247.148438 362.988281 269.226562 364.890625 C 274.449219 365.34375 279.707031 364.90625 284.78125 363.605469 C 290.78125 362.070312 296.519531 359.441406 302.714844 358.722656 C 313.953125 357.421875 324.925781 362.074219 333.738281 368.75 C 352.542969 382.996094 360.507812 406.234375 376.578125 422.878906 C 383.414062 429.957031 392.28125 435.167969 402.425781 433.886719 C 412.132812 432.667969 420.390625 426.542969 428.160156 421.058594 C 436.128906 415.425781 444.078125 410.296875 453.679688 407.992188 C 462.285156 405.929688 471.339844 405.882812 480 407.578125 C 497.660156 411.027344 513.964844 421.679688 522.582031 437.710938 C 522.980469 438.453125 524.105469 437.792969 523.707031 437.050781 C 521.644531 433.214844 519.152344 429.636719 516.265625 426.375 C 504.410156 413 486.539062 405.410156 468.785156 405.082031 C 459.917969 404.921875 451.023438 406.617188 442.953125 410.328125 C 433.265625 414.785156 425.332031 422.171875 416.140625 427.464844 C 411.445312 430.164062 406.316406 432.375 400.855469 432.742188 C 395.070312 433.128906 389.550781 431.335938 384.765625 428.148438 C 374.679688 421.4375 368.015625 410.304688 361.503906 400.378906 C 349.414062 381.941406 334.886719 360.4375 311.035156 357.480469 C 305.285156 356.765625 299.761719 357.628906 294.257812 359.308594 C 288.183594 361.171875 282.335938 363.316406 275.929688 363.691406 C 263.964844 364.382812 252.40625 360.136719 242.175781 354.246094 C 231.53125 348.121094 222.050781 340.214844 212.878906 332.101562 C 207.742188 327.558594 202.246094 322.78125 196.0625 319.566406 C 196.71875 316.195312 196.652344 312.691406 195.933594 309.3125 C 202.042969 312.601562 207.507812 317.5 212.5 321.910156 C 228.453125 336.023438 247.148438 351.398438 269.226562 353.300781 C 274.449219 353.75 279.707031 353.316406 284.78125 352.015625 C 290.78125 350.476562 296.519531 347.851562 302.714844 347.128906 C 313.953125 345.828125 324.925781 350.484375 333.738281 357.15625 C 352.542969 371.40625 360.507812 394.644531 376.578125 411.285156 C 383.414062 418.367188 392.28125 423.578125 402.425781 422.296875 C 412.132812 421.078125 420.390625 414.953125 428.160156 409.46875 C 436.128906 403.832031 444.078125 398.707031 453.679688 396.402344 C 462.285156 394.339844 471.339844 394.292969 480 395.988281 C 497.660156 399.4375 513.964844 410.089844 522.582031 426.121094 C 522.980469 426.863281 524.105469 426.203125 523.707031 425.460938 C 521.644531 421.625 519.152344 418.046875 516.265625 414.785156 C 504.410156 401.410156 486.539062 393.8125 468.785156 393.492188 C 459.917969 393.328125 451.023438 395.023438 442.953125 398.738281 C 433.265625 403.191406 425.332031 410.582031 416.140625 415.871094 C 411.445312 418.570312 406.316406 420.785156 400.855469 421.148438 C 395.070312 421.535156 389.550781 419.746094 384.765625 416.558594 C 374.679688 409.84375 368.015625 398.714844 361.503906 388.789062 C 349.414062 370.347656 334.886719 348.847656 311.035156 345.890625 C 305.285156 345.175781 299.761719 346.03125 294.257812 347.71875 C 288.183594 349.578125 282.335938 351.726562 275.929688 352.097656 C 263.964844 352.796875 252.40625 348.546875 242.175781 342.65625 C 231.53125 336.527344 222.050781 328.625 212.878906 320.511719 C 207.621094 315.859375 201.972656 310.953125 195.601562 307.742188 C 196.726562 303.789062 196.789062 299.582031 195.933594 295.542969 C 202.042969 298.832031 207.507812 303.730469 212.5 308.144531 C 228.453125 322.257812 247.148438 337.628906 269.226562 339.53125 C 274.449219 339.984375 279.707031 339.546875 284.78125 338.246094 C 290.78125 336.707031 296.519531 334.082031 302.714844 333.363281 C 313.953125 332.058594 324.925781 336.714844 333.738281 343.394531 C 352.542969 357.636719 360.507812 380.875 376.578125 397.515625 C 383.414062 404.597656 392.28125 409.808594 402.425781 408.53125 C 412.132812 407.308594 420.390625 401.183594 428.160156 395.699219 C 436.128906 390.0625 444.078125 384.9375 453.679688 382.632812 C 462.285156 380.570312 471.339844 380.523438 480 382.21875 C 497.660156 385.667969 513.964844 396.320312 522.582031 412.351562 C 522.980469 413.09375 524.105469 412.433594 523.707031 411.691406 C 521.644531 407.855469 519.152344 404.277344 516.265625 401.015625 C 504.410156 387.640625 486.539062 380.046875 468.785156 379.722656 C 459.917969 379.558594 451.023438 381.253906 442.953125 384.96875 C 433.265625 389.421875 425.332031 396.8125 416.140625 402.105469 C 411.445312 404.804688 406.316406 407.015625 400.855469 407.378906 C 395.070312 407.765625 389.550781 405.976562 384.765625 402.789062 C 374.679688 396.074219 368.015625 384.945312 361.503906 375.019531 C 349.414062 356.582031 334.886719 335.078125 311.035156 332.121094 C 305.285156 331.40625 299.761719 332.265625 294.257812 333.953125 C 288.183594 335.808594 282.335938 337.960938 275.929688 338.328125 C 263.964844 339.027344 252.40625 334.777344 242.175781 328.886719 C 231.53125 322.757812 222.050781 314.855469 212.878906 306.742188 C 207.601562 302.074219 201.9375 297.148438 195.539062 293.9375 C 194.933594 291.761719 194.0625 289.644531 192.933594 287.667969 C 180.398438 265.730469 151.664062 266.28125 130.398438 259.808594 C 118.710938 256.25 108.925781 249.71875 100.707031 240.726562 C 92.988281 232.277344 86.859375 222.539062 80.835938 212.851562 C 80.390625 212.136719 79.269531 212.796875 79.710938 213.511719 C 82.4375 217.894531 85.179688 222.273438 88.082031 226.546875 C 93.976562 235.21875 100.570312 243.601562 108.828125 250.148438 C 117.808594 257.265625 128.273438 260.996094 139.351562 263.460938 C 151.210938 266.097656 163.5625 267.640625 174.585938 273.042969 C 183.003906 277.171875 191.023438 284.117188 194.035156 293.226562 C 191.070312 291.890625 187.945312 290.9375 184.632812 290.554688 C 184.183594 290.503906 183.730469 290.46875 183.277344 290.453125 C 168.824219 279.429688 147.265625 278.710938 130.398438 273.578125 C 118.710938 270.019531 108.925781 263.488281 100.707031 254.496094 C 92.988281 246.046875 86.859375 236.308594 80.835938 226.621094 C 80.390625 225.90625 79.269531 226.5625 79.710938 227.273438 C 82.4375 231.664062 85.179688 236.042969 88.082031 240.316406 C 93.976562 248.988281 100.570312 257.371094 108.828125 263.917969 C 117.808594 271.035156 128.273438 274.765625 139.351562 277.230469 C 151.210938 279.867188 163.5625 281.410156 174.585938 286.8125 C 176.71875 287.859375 178.824219 289.082031 180.832031 290.480469 C 176.707031 290.769531 172.519531 292.234375 169.105469 294.65625 C 156.644531 290.226562 142.34375 288.800781 130.398438 285.167969 C 118.710938 281.613281 108.925781 275.078125 100.707031 266.085938 C 92.988281 257.636719 86.859375 247.898438 80.835938 238.210938 C 80.390625 237.496094 79.269531 238.15625 79.710938 238.871094 C 82.4375 243.253906 85.179688 247.632812 88.082031 251.90625 C 93.976562 260.578125 100.570312 268.960938 108.828125 275.507812 C 117.808594 282.625 128.273438 286.355469 139.351562 288.820312 C 148.855469 290.929688 158.671875 292.34375 167.875 295.601562 C 165.820312 297.300781 164.125 299.378906 163 301.789062 C 162.273438 303.347656 161.875 304.921875 161.753906 306.46875 C 151.242188 303.664062 140.050781 302.175781 130.398438 299.238281 C 118.710938 295.679688 108.925781 289.148438 100.707031 280.152344 C 92.988281 271.707031 86.859375 261.96875 80.835938 252.28125 C 80.390625 251.566406 79.269531 252.21875 79.710938 252.933594 C 82.4375 257.324219 85.179688 261.699219 88.082031 265.976562 C 93.976562 274.644531 100.570312 283.03125 108.828125 289.578125 C 117.808594 296.695312 128.273438 300.425781 139.351562 302.890625 C 146.761719 304.535156 154.367188 305.753906 161.71875 307.757812 C 161.773438 310.089844 162.464844 312.328125 163.648438 314.316406 C 163.414062 314.71875 163.199219 315.128906 163 315.554688 C 162.542969 316.542969 162.210938 317.539062 162 318.527344 C 151.410156 315.683594 140.125 314.191406 130.398438 311.226562 C 118.710938 307.671875 108.925781 301.140625 100.707031 292.148438 C 92.988281 283.699219 86.859375 273.960938 80.835938 264.273438 C 80.390625 263.558594 79.269531 264.214844 79.710938 264.929688 C 82.4375 269.316406 85.179688 273.691406 88.082031 277.96875 C 93.976562 286.636719 100.570312 295.023438 108.828125 301.566406 C 117.808594 308.683594 128.273438 312.417969 139.351562 314.882812 C 146.789062 316.535156 154.421875 317.761719 161.796875 319.773438 C 161.507812 322.3125 161.988281 324.789062 163.070312 327.007812 C 163.046875 327.050781 163.023438 327.097656 163 327.144531 C 162.335938 328.578125 161.9375 330.019531 161.785156 331.441406 C 151.265625 328.632812 140.0625 327.144531 130.398438 324.199219 C 118.710938 320.644531 108.925781 314.113281 100.707031 305.121094 C 92.988281 296.671875 86.859375 286.933594 80.835938 277.246094 C 80.390625 276.53125 79.269531 277.1875 79.710938 277.902344 C 82.4375 282.289062 85.179688 286.664062 88.082031 290.941406 C 93.976562 299.609375 100.570312 307.996094 108.828125 314.539062 C 117.808594 321.664062 128.273438 325.390625 139.351562 327.855469 C 146.761719 329.503906 154.367188 330.71875 161.714844 332.722656 C 161.695312 335.257812 162.429688 337.683594 163.738281 339.816406 C 163.46875 340.269531 163.222656 340.734375 163 341.214844 C 162.734375 341.78125 162.519531 342.351562 162.339844 342.917969 C 151.234375 339.734375 139.195312 338.246094 128.910156 335.113281 C 117.21875 331.558594 107.433594 325.027344 99.214844 316.03125 C 91.496094 307.585938 85.367188 297.847656 79.347656 288.15625 C 78.902344 287.445312 77.777344 288.097656 78.21875 288.816406 C 80.945312 293.203125 83.6875 297.578125 86.59375 301.855469 C 92.484375 310.523438 99.078125 318.90625 107.335938 325.453125 C 116.316406 332.570312 126.785156 336.304688 137.863281 338.765625 C 145.871094 340.546875 154.109375 341.832031 162.007812 344.140625 C 161.339844 347.207031 161.828125 350.222656 163.167969 352.867188 C 163.113281 352.980469 163.050781 353.09375 163 353.207031 C 162.679688 353.902344 162.421875 354.597656 162.222656 355.289062 C 150.699219 351.78125 138.023438 350.304688 127.257812 347.027344 C 115.566406 343.472656 105.78125 336.9375 97.558594 327.945312 C 89.839844 319.496094 83.710938 309.757812 77.691406 300.070312 C 77.246094 299.355469 76.121094 300.011719 76.566406 300.730469 C 79.289062 305.113281 82.039062 309.492188 84.941406 313.765625 C 90.828125 322.4375 97.421875 330.820312 105.679688 337.367188 C 114.660156 344.484375 125.128906 348.214844 136.207031 350.679688 C 144.753906 352.578125 153.554688 353.910156 161.933594 356.53125 C 161.355469 359.644531 161.957031 362.699219 163.425781 365.339844 C 163.277344 365.617188 163.132812 365.898438 163 366.175781 C 162.859375 366.488281 162.730469 366.796875 162.609375 367.105469 C 150.316406 362.859375 136.332031 361.421875 124.609375 357.859375 C 112.917969 354.300781 103.132812 347.769531 94.910156 338.773438 C 87.191406 330.328125 81.0625 320.585938 75.039062 310.902344 C 74.597656 310.1875 73.46875 310.839844 73.917969 311.554688 C 76.644531 315.945312 79.386719 320.320312 82.289062 324.59375 C 88.179688 333.265625 94.777344 341.652344 103.03125 348.199219 C 112.011719 355.316406 122.480469 359.046875 133.5625 361.511719 C 143.101562 363.628906 152.960938 365.042969 162.199219 368.332031 C 161.496094 370.839844 161.578125 373.332031 162.285156 375.636719 C 162.003906 376.105469 161.746094 376.59375 161.511719 377.089844 C 161.320312 377.496094 161.160156 377.902344 161.011719 378.300781 C 148.472656 373.769531 134.015625 372.355469 121.957031 368.6875 C 110.265625 365.128906 100.480469 358.597656 92.265625 349.601562 C 84.542969 341.152344 78.417969 331.414062 72.394531 321.726562 C 71.949219 321.019531 70.824219 321.671875 71.265625 322.386719 " fill-opacity="1" fill-rule="nonzero"/></g><path fill="#6667ab" d="M 168.648438 412.277344 C 165.542969 412.277344 163.023438 414.796875 163.023438 417.902344 C 163.023438 421.011719 165.542969 423.527344 168.648438 423.527344 C 171.753906 423.527344 174.273438 421.011719 174.273438 417.902344 C 174.273438 414.796875 171.753906 412.277344 168.648438 412.277344 " fill-opacity="1" fill-rule="nonzero"/><path fill="#6667ab" d="M 469.882812 484.960938 C 466.777344 484.960938 464.257812 487.476562 464.257812 490.585938 C 464.257812 493.691406 466.777344 496.210938 469.882812 496.210938 C 472.992188 496.210938 475.507812 493.691406 475.507812 490.585938 C 475.507812 487.476562 472.992188 484.960938 469.882812 484.960938 " fill-opacity="1" fill-rule="nonzero"/><path fill="#6667ab" d="M 93.902344 226.183594 C 90.792969 226.183594 88.277344 228.699219 88.277344 231.808594 C 88.277344 234.914062 90.792969 237.433594 93.902344 237.433594 C 97.007812 237.433594 99.527344 234.914062 99.527344 231.808594 C 99.527344 228.699219 97.007812 226.183594 93.902344 226.183594 " fill-opacity="1" fill-rule="nonzero"/></svg>